<?xml version="1.0" standalone="no"?><!DOCTYPE svg PUBLIC "-//W3C//DTD SVG 1.1//EN" "http://www.w3.org/Graphics/SVG/1.1/DTD/svg11.dtd"><svg t="1612531768262" class="icon" viewBox="0 0 1024 1024" version="1.1" xmlns="http://www.w3.org/2000/svg" p-id="1678" xmlns:xlink="http://www.w3.org/1999/xlink" width="128" height="128"><defs><style type="text/css"></style></defs><path d="M670.72 74.88C430.08-12.842667 162.602667 112 75.562667 352c-88.362667 243.157333 36.437333 510.122667 277.077333 597.76 241.28 87.68 510.122667-37.12 597.76-277.76 87.765333-241.92-37.12-509.397333-278.357333-597.12h-1.322667zM512 1024C230.4 1024 0 793.6 0 512S230.4 0 512 0s512 230.4 512 512-230.4 512-512 512" fill="#515151" p-id="1679"></path><path d="M380.842667 247.68v528.682667L839.68 512 380.842667 247.68z m44.757333 75.477333L752 512l-326.4 188.842667V323.157333" fill="#515151" p-id="1680"></path><path d="M275.157333 305.28v413.397333L633.6 512 275.157333 305.28z m44.842667 76.8L546.602667 512 320 642.602667V381.397333" fill="#515151" p-id="1681"></path></svg>